<svg width="359" height="121" viewBox="0 0 359 121" fill="none" xmlns="http://www.w3.org/2000/svg">
<rect y="0.219971" width="358.39" height="120" rx="60" fill="#FFF0EF"/>
<path d="M113 0.219971V9.9049C113 36.6999 127.269 60.1374 148.511 73.1798V103.526H245.361V90.6127C245.361 73.4381 210.947 64.7862 193.708 64.7862C193.708 64.7862 192.61 64.7862 192.094 64.7862C161.425 64.7862 135.598 38.9597 135.598 9.9049V0.219971M193.708 0.219971C186.858 0.219971 180.289 2.94097 175.446 7.78437C170.602 12.6278 167.881 19.1968 167.881 26.0465C167.881 32.8961 170.602 39.4651 175.446 44.3085C180.289 49.152 186.858 51.873 193.708 51.873C200.557 51.873 207.126 49.152 211.97 44.3085C216.813 39.4651 219.534 32.8961 219.534 26.0465C219.534 19.1968 216.813 12.6278 211.97 7.78437C207.126 2.94097 200.557 0.219971 193.708 0.219971Z" fill="#E83428"/>
</svg>
