<svg width="360" height="123" viewBox="0 0 360 123" fill="none" xmlns="http://www.w3.org/2000/svg">
<rect y="2.21997" width="359.39" height="120" rx="60" fill="#FFF0EF"/>
<path d="M139.693 63.1937C130.66 63.1937 130.66 49.644 130.66 33.836C130.66 18.028 139.693 2.21997 162.276 2.21997C184.859 2.21997 193.892 18.028 193.892 33.836C193.892 49.644 193.892 63.1937 184.859 63.1937" stroke="#E83428" stroke-width="4.29842" stroke-linecap="round" stroke-linejoin="round"/>
<path d="M119.368 110.618V103.843C119.368 92.5648 130.677 83.5183 141.951 83.5183C155.501 94.8097 169.051 94.8097 182.6 83.5183C185.71 83.5382 188.784 84.1833 191.64 85.4153" stroke="#E83428" stroke-width="4.29842" stroke-linecap="round" stroke-linejoin="round"/>
<path d="M175.539 42.8694C175.539 43.7627 175.274 44.6359 174.778 45.3786C174.282 46.1214 173.576 46.7003 172.751 47.0421C171.926 47.384 171.017 47.4734 170.141 47.2991C169.265 47.1249 168.46 46.6947 167.829 46.0631C167.197 45.4314 166.767 44.6266 166.593 43.7505C166.418 42.8744 166.508 41.9662 166.85 41.1409C167.192 40.3156 167.77 39.6103 168.513 39.114C169.256 38.6177 170.129 38.3528 171.022 38.3528C172.22 38.3528 173.369 38.8286 174.216 39.6757C175.063 40.5227 175.539 41.6715 175.539 42.8694Z" fill="#E83428"/>
<path d="M157.473 42.8694C157.473 43.7627 157.208 44.6359 156.711 45.3786C156.215 46.1214 155.51 46.7003 154.684 47.0421C153.859 47.384 152.951 47.4734 152.075 47.2991C151.199 47.1249 150.394 46.6947 149.762 46.0631C149.131 45.4314 148.701 44.6266 148.526 43.7505C148.352 42.8744 148.441 41.9662 148.783 41.1409C149.125 40.3156 149.704 39.6103 150.447 39.114C151.19 38.6177 152.063 38.3528 152.956 38.3528C154.154 38.3528 155.303 38.8286 156.15 39.6757C156.997 40.5227 157.473 41.6715 157.473 42.8694Z" fill="#E83428"/>
<path d="M137.291 45.1275C137.291 65.4521 148.439 76.7435 162.132 76.7435C175.539 76.7435 187.117 65.4521 187.117 45.1275C187.172 41.2462 186.402 37.3975 184.859 33.8361C178.084 27.0612 169.051 15.7698 169.051 15.7698C160.017 22.5446 153.242 29.3195 139.693 31.5778C139.693 31.5778 137.291 33.8349 137.291 45.1275Z" stroke="#E83428" stroke-width="4.29842" stroke-linejoin="round"/>
<path d="M155.501 60.9355C157.596 62.0144 159.919 62.5773 162.276 62.5773C164.633 62.5773 166.955 62.0144 169.051 60.9355" stroke="#E83428" stroke-width="4.29842" stroke-linecap="round" stroke-linejoin="round"/>
<path d="M216.475 110.618L212.1 80.5697L214.217 77.7468L227.767 73.2302L239.058 59.6805C239.355 59.3839 239.59 59.0319 239.75 58.6444C239.911 58.2569 239.993 57.8416 239.993 57.4222C239.993 57.0028 239.911 56.5875 239.75 56.2C239.59 55.8126 239.355 55.4605 239.058 55.1639C238.761 54.8674 238.409 54.6321 238.022 54.4716C237.634 54.3111 237.219 54.2285 236.8 54.2285C236.38 54.2285 235.965 54.3111 235.577 54.4716C235.19 54.6321 234.838 54.8674 234.541 55.1639L227.767 61.9388C225.508 64.1971 218.733 61.9388 211.958 64.1971C205.184 66.4554 200.667 71.497 200.667 75.4885V110.618" stroke="#E83428" stroke-width="4.29842" stroke-linecap="round" stroke-linejoin="round"/>
</svg>
