<svg width="360" height="121" viewBox="0 0 360 121" fill="none" xmlns="http://www.w3.org/2000/svg">
<rect y="0.219971" width="359.39" height="120" rx="60" fill="#FFF0EF"/>
<path d="M179.69 9.98462C170.033 9.98462 160.594 12.8481 152.565 18.2129C144.536 23.5777 138.278 31.2029 134.583 40.1243C130.887 49.0456 129.92 58.8624 131.804 68.3333C133.688 77.8041 138.338 86.5037 145.166 93.3318C151.994 100.16 160.694 104.81 170.165 106.694C179.636 108.578 189.453 107.611 198.374 103.915C207.295 100.22 214.92 93.9622 220.285 85.9332C225.65 77.9042 228.514 68.4647 228.514 58.8083C228.514 52.3966 227.251 46.0478 224.797 40.1243C222.343 34.2007 218.747 28.8184 214.213 24.2847C209.68 19.751 204.297 16.1547 198.374 13.7011C192.45 11.2475 186.101 9.98462 179.69 9.98462ZM199.219 63.6906H179.69C178.395 63.6906 177.153 63.1762 176.238 62.2606C175.322 61.345 174.808 60.1031 174.808 58.8083V39.2788C174.808 37.9839 175.322 36.7421 176.238 35.8265C177.153 34.9108 178.395 34.3964 179.69 34.3964C180.985 34.3964 182.227 34.9108 183.142 35.8265C184.058 36.7421 184.572 37.9839 184.572 39.2788V53.9259H199.219C200.514 53.9259 201.756 54.4403 202.672 55.3559C203.587 56.2715 204.102 57.5134 204.102 58.8083C204.102 60.1031 203.587 61.345 202.672 62.2606C201.756 63.1762 200.514 63.6906 199.219 63.6906Z" fill="#E83428"/>
</svg>
