<svg width="39" height="33" viewBox="0 0 39 33" fill="none" xmlns="http://www.w3.org/2000/svg">
<path d="M27.6686 30.558H2.91856V12.012H12.4886V2.442H27.6686V4.884L30.1766 2.508V0H12.4886L0.476562 12.012V33H30.1766V18.414L27.6686 20.988V30.558ZM37.4366 6.534L33.7406 2.772C33.5646 2.596 33.3556 2.508 33.1136 2.508C32.8716 2.508 32.6846 2.596 32.5526 2.772L16.7786 17.952C16.6906 18.04 16.6246 18.15 16.5806 18.282L14.6666 24.552C14.5786 24.86 14.6446 25.135 14.8646 25.377C15.0846 25.619 15.3706 25.696 15.7226 25.608L22.1906 23.628L37.4366 7.722C37.6126 7.546 37.7006 7.337 37.7006 7.095C37.7006 6.853 37.6126 6.666 37.4366 6.534ZM18.2306 23.298L16.9766 21.978L17.8346 19.14L19.9466 20.262L21.0686 22.44L18.2306 23.298ZM35.0606 5.94L21.6626 19.404L20.8046 18.612L34.3346 5.148L35.0606 5.94Z" fill="#333333"/>
</svg>
