<svg width="48" height="67" viewBox="0 0 48 67" fill="none" xmlns="http://www.w3.org/2000/svg">
<path d="M16.5 20.6496C16.5 16.0937 19.1906 12.3895 22.5 12.3895H25.5C28.8094 12.3895 31.5 16.0937 31.5 20.6496V21.1143C31.5 23.9279 30.4594 26.5479 28.7438 28.0579L24.7875 31.5556C22.425 33.6464 21 37.2473 21 41.1064V41.2871C21 43.5715 22.3406 45.4171 24 45.4171C25.6594 45.4171 27 43.5715 27 41.2871V41.1064C27 40.048 27.3937 39.0672 28.0312 38.4993L31.9875 35.0016C35.4187 31.9557 37.5 26.7286 37.5 21.1014V20.6367C37.5 11.5119 32.1281 4.11646 25.5 4.11646H22.5C15.8719 4.12936 10.5 11.5248 10.5 20.6496C10.5 22.9341 11.8406 24.7797 13.5 24.7797C15.1594 24.7797 16.5 22.9341 16.5 20.6496ZM24 61.9503C24.9946 61.9503 25.9484 61.4064 26.6516 60.4382C27.3549 59.47 27.75 58.1569 27.75 56.7877C27.75 55.4185 27.3549 54.1054 26.6516 53.1372C25.9484 52.1691 24.9946 51.6251 24 51.6251C23.0054 51.6251 22.0516 52.1691 21.3483 53.1372C20.6451 54.1054 20.25 55.4185 20.25 56.7877C20.25 58.1569 20.6451 59.47 21.3483 60.4382C22.0516 61.4064 23.0054 61.9503 24 61.9503Z" fill="#F5E524"/>
</svg>
