<svg width="66" height="105" viewBox="0 0 66 105" fill="none" xmlns="http://www.w3.org/2000/svg">
<path d="M21.9886 45.9942C20.338 41.4802 21.3262 35.686 24.1922 33.0734L26.7903 30.705C29.6563 28.0923 33.3284 29.6381 34.9789 34.1521L35.1473 34.6124C36.1666 37.4001 36.2146 40.8174 35.2759 43.668L33.1168 50.2568C31.8283 54.1935 31.8987 58.8861 33.2968 62.7096L33.3623 62.8886C34.1899 65.152 36.0195 65.9222 37.4566 64.6121C38.8936 63.3021 39.386 60.4151 38.5584 58.1518L38.493 57.9727C38.1095 56.9242 38.0952 55.6415 38.4415 54.5755L40.6006 47.9868C42.4687 42.2601 42.3774 35.4381 40.3388 29.8628L40.1704 29.4024C36.8646 20.3617 29.5332 17.2755 23.7931 22.5082L21.195 24.8767C15.4596 30.1222 13.4866 41.6903 16.7924 50.731C17.62 52.9944 19.4497 53.7646 20.8867 52.4546C22.3238 51.1445 22.8162 48.2575 21.9886 45.9942ZM43.4463 80.9928C44.3076 80.2076 44.9366 78.9157 45.1949 77.4013C45.4532 75.8868 45.3196 74.2739 44.8235 72.9173C44.3275 71.5607 43.5096 70.5717 42.5498 70.1676C41.59 69.7636 40.567 69.9777 39.7056 70.7629C38.8443 71.5481 38.2153 72.84 37.957 74.3544C37.6988 75.8689 37.8323 77.4818 38.3284 78.8384C38.8244 80.195 39.6423 81.184 40.6021 81.5881C41.5619 81.9921 42.585 81.778 43.4463 80.9928Z" fill="#F5E524"/>
</svg>
