<svg width="21" height="19" viewBox="0 0 21 19" fill="none" xmlns="http://www.w3.org/2000/svg">
<path d="M15.4687 18.4502C14.4682 18.4502 13.4207 18.1793 12.326 17.6376C11.5374 17.249 10.9077 16.9193 10.4369 16.6484C9.80133 16.2716 9.1834 15.8476 8.58312 15.3766C7.91222 14.8584 7.1707 14.2137 6.35856 13.4423C5.54641 12.671 4.86963 11.9674 4.3282 11.3315C3.83385 10.7544 3.39247 10.1656 3.00406 9.56501C2.7098 9.11752 2.3567 8.51693 1.94474 7.76325C1.39154 6.72694 1.10906 5.74362 1.09729 4.8133C1.08552 4.10672 1.24442 3.44725 1.57398 2.83489C1.77407 2.44627 2.02125 2.10476 2.3155 1.81035L2.93344 1.22743C3.25123 0.933022 3.59257 0.785818 3.95744 0.785818C4.35763 0.785818 4.7225 0.956573 5.05207 1.29809C5.31101 1.58072 5.68766 2.06354 6.182 2.74656C6.6175 3.33538 6.96472 3.82998 7.22366 4.23037C7.45907 4.60721 7.55029 5.0076 7.49732 5.43155C7.44436 5.85549 7.25309 6.22056 6.92353 6.52674L5.72297 7.67493C6.14669 8.3815 6.59102 9.02625 7.05594 9.60917C7.52086 10.1921 8.04169 10.7544 8.61843 11.2961C9.19517 11.8378 9.78956 12.3324 10.4016 12.7799C11.0137 13.2274 11.6846 13.6514 12.4143 14.0518L13.6149 12.9036C14.0151 12.5385 14.48 12.356 15.0096 12.356C15.3745 12.356 15.7158 12.4443 16.0336 12.621C16.4574 12.8683 16.9811 13.198 17.605 13.6102C18.3229 14.0812 18.8291 14.4404 19.1233 14.6877C19.4646 14.9939 19.6412 15.3295 19.653 15.6946C19.6647 16.0596 19.5117 16.3952 19.1939 16.7014L18.576 17.2843C18.2817 17.567 17.9286 17.8025 17.5167 17.9909C16.8929 18.2971 16.2102 18.4502 15.4687 18.4502Z" fill="black"/>
</svg>
