<svg width="11" height="11" viewBox="0 0 11 11" fill="none" xmlns="http://www.w3.org/2000/svg">
<g clip-path="url(#clip0_1_1356)">
<path d="M10.4726 0.479492H3.32959C3.13259 0.479492 2.97259 0.639492 2.97259 0.836492V2.62249H1.18659C0.98959 2.62249 0.82959 2.78249 0.82959 2.97949V10.1225C0.82959 10.3195 0.98959 10.4795 1.18659 10.4795H8.32959C8.52659 10.4795 8.68659 10.3195 8.68659 10.1225V8.33649H10.4726C10.6696 8.33649 10.8296 8.17649 10.8296 7.97949V0.836492C10.8296 0.639492 10.6696 0.479492 10.4726 0.479492ZM7.97259 9.76549H1.54359V3.33649H7.97259V9.76549ZM10.1156 7.62249H8.68659V2.97949C8.68659 2.78249 8.52659 2.62249 8.32959 2.62249H3.68659V1.19349H10.1156V7.62249Z" fill="black"/>
</g>
<defs>
<clipPath id="clip0_1_1356">
<rect width="10" height="10" fill="white" transform="translate(0.82959 0.479492)"/>
</clipPath>
</defs>
</svg>
