<svg width="57" height="88" viewBox="0 0 57 88" fill="none" xmlns="http://www.w3.org/2000/svg">
<path d="M46.6686 85.558H21.9186V67.012H31.4886V57.442H46.6686V59.884L49.1766 57.508V55H31.4886L19.4766 67.012V88H49.1766V73.414L46.6686 75.988V85.558ZM56.4366 61.534L52.7406 57.772C52.5646 57.596 52.3556 57.508 52.1136 57.508C51.8716 57.508 51.6846 57.596 51.5526 57.772L35.7786 72.952C35.6906 73.04 35.6246 73.15 35.5806 73.282L33.6666 79.552C33.5786 79.86 33.6446 80.135 33.8646 80.377C34.0846 80.619 34.3706 80.696 34.7226 80.608L41.1906 78.628L56.4366 62.722C56.6126 62.546 56.7006 62.337 56.7006 62.095C56.7006 61.853 56.6126 61.666 56.4366 61.534ZM37.2306 78.298L35.9766 76.978L36.8346 74.14L38.9466 75.262L40.0686 77.44L37.2306 78.298ZM54.0606 60.94L40.6626 74.404L39.8046 73.612L53.3346 60.148L54.0606 60.94Z" fill="#333333"/>
</svg>
