<svg width="181" height="40" viewBox="0 0 181 40" fill="none" xmlns="http://www.w3.org/2000/svg">
<g clip-path="url(#clip0_1_1264)">
<path d="M85.595 27.7662C85.595 28.9626 85.3557 30.1277 84.8876 31.2721C84.4091 32.4164 83.7225 33.4463 82.7966 34.3513C81.8707 35.2564 80.7576 35.995 79.426 36.5464C78.0944 37.0977 76.5756 37.3786 74.8695 37.3786C73.1634 37.3786 71.4781 37.1706 70.0633 36.7648C68.6485 36.3591 67.3273 35.7974 66.0894 35.1004L67.9307 30.9496C68.3884 31.2617 68.6381 32.0211 69.2727 32.3644C69.9073 32.7077 70.5939 33.0198 71.3117 33.311C72.0295 33.6023 72.7785 33.8416 73.5483 34.0393C74.3181 34.2369 75.6393 34.7155 76.3571 34.7155C77.3454 34.7155 78.1985 34.6218 78.9059 34.4346C79.6133 34.2473 80.1958 34.0185 80.6536 33.7584C80.9032 33.6127 81.1425 33.4359 81.361 33.2278C81.5898 33.0198 81.7875 32.7389 81.9643 32.3956C82.1412 32.0419 82.2764 31.605 82.3805 31.0848C82.4845 30.5647 82.5365 29.9301 82.5365 29.1811C82.5365 28.2136 82.3285 27.3917 81.9019 26.7259C81.4754 26.0602 80.3415 25.1031 79.6445 24.6245C78.9475 24.146 78.1464 23.7299 77.2622 23.3762C76.3779 23.0121 75.4729 22.648 74.5574 22.2631C73.6419 21.8781 72.7369 21.462 71.8526 20.9939C70.9684 20.5258 70.1673 19.9536 69.4703 19.267C68.7733 18.5804 68.2116 17.7481 67.7851 16.7807C67.3585 15.8132 67.1505 14.6272 67.1505 13.2228C67.1505 12.2554 67.3793 11.2775 67.8267 10.2996C68.2844 9.32171 68.9294 8.43745 69.7928 7.63642C70.6459 6.84579 71.6966 6.1904 72.9449 5.69106C74.1933 5.18131 75.6081 4.93164 77.1998 4.93164C78.4793 4.93164 79.6757 5.00446 80.7888 5.1501C81.9019 5.29575 83.0151 5.483 84.1282 5.70146L83.1503 9.89388C81.9748 9.47775 80.768 8.66632 79.4884 8.37504C78.2089 8.07335 76.3675 7.5428 75.2544 7.5428C74.391 7.5428 73.6211 7.60521 72.9657 7.73005C72.3104 7.85489 71.8006 8.04214 71.4469 8.29181C71.0724 8.5831 70.7603 8.99922 70.4898 9.54017C70.2194 10.0915 70.0841 10.3932 70.0841 11.5063C70.0841 12.3906 70.9372 13.5245 71.3637 14.1383C71.7902 14.7417 72.352 15.2722 73.049 15.73C73.746 16.1877 74.547 16.5934 75.4313 16.9471C76.3155 17.3112 77.2206 17.6753 78.1568 18.0602C79.0827 18.4451 79.9878 18.8717 80.8824 19.3606C81.7667 19.8496 82.5573 20.4425 83.2647 21.1395C83.9721 21.8365 84.5235 23.2097 84.95 24.198C85.3765 25.1863 85.5846 26.3826 85.5846 27.7871L85.595 27.7662Z" fill="#262626"/>
<path d="M112.903 36.9523V21.3894H96.4661V36.9523H91.6807V5.2959H96.4661V19.9225H112.903V5.2959H117.688V36.9523H112.903Z" fill="#262626"/>
<path d="M125.417 36.9523V5.2959H130.078V36.9523H125.417Z" fill="#262626"/>
<path d="M141.99 36.9523H137.568V5.2959H154.234L153.953 7.55335L141.99 7.7094V20.5051L153.547 20.6299L153.235 21.7951L141.979 22.0447V36.9627L141.99 36.9523Z" fill="#262626"/>
<path d="M166.374 36.9519V7.72986L156.71 7.57382L157.022 5.28516H180.491L180.179 7.48019L170.827 7.72986V36.9519H166.385H166.374Z" fill="#262626"/>
<path d="M13.6062 26.7362C13.0133 25.9143 10.7038 24.8428 10.8807 21.1602C11.0055 18.6426 14.0744 17.8104 16.7584 15.4073C18.3604 13.9821 18.8286 12.6193 19.0158 10.5803C19.4944 5.51404 15.7701 1.01995 10.7038 0.541407C5.62714 0.0628687 1.13304 3.78715 0.654499 8.86381C0.467245 10.9028 0.987395 12.5257 1.97568 14.0237C4.07709 17.207 7.31243 18.2993 7.06275 20.8065C6.69865 24.5516 4.90933 25.1653 4.17072 25.8623C2.35019 27.0691 0.768932 28.6399 0.550469 30.991C0.165557 35.1314 3.20324 38.8037 7.34363 39.1886C11.484 39.5735 15.1563 36.5358 15.5412 32.3954C15.7597 30.0443 15.1667 28.2758 13.6062 26.7362Z" fill="#005BAC"/>
<path d="M15.0834 2.13345C15.9781 4.13083 16.4774 6.33627 16.4774 8.66654C16.4774 11.8291 15.5932 15.0332 12.8052 18.2789C13.6894 17.8108 15.8325 16.2399 16.7687 15.3973C18.3708 13.9721 18.8389 12.6093 19.0262 10.5703C19.3487 7.1269 17.7362 3.96438 15.0834 2.12305V2.13345Z" fill="#004B91"/>
<path d="M14.0743 29.191C14.0743 33.914 10.246 37.7423 5.52306 37.7423C4.69082 37.7423 3.88979 37.6174 3.13037 37.399C4.2747 38.3873 5.72072 39.0427 7.34359 39.1883C11.484 39.5732 15.1562 36.5355 15.5412 32.3951C15.7492 30.1273 15.2083 28.4004 13.7622 26.9023C13.9599 27.6306 14.0743 28.4004 14.0743 29.191Z" fill="#004B91"/>
<path d="M6.70877 8.12556C7.96128 8.12556 8.97663 7.1102 8.97663 5.8577C8.97663 4.6052 7.96128 3.58984 6.70877 3.58984C5.45627 3.58984 4.44092 4.6052 4.44092 5.8577C4.44092 7.1102 5.45627 8.12556 6.70877 8.12556Z" fill="#4C8DCB"/>
<path d="M4.53468 30.6993C5.21264 30.6993 5.76224 30.1497 5.76224 29.4717C5.76224 28.7937 5.21264 28.2441 4.53468 28.2441C3.85672 28.2441 3.30713 28.7937 3.30713 29.4717C3.30713 30.1497 3.85672 30.6993 4.53468 30.6993Z" fill="#4C8DCB"/>
<path d="M28.5552 31.1784C29.4603 30.7206 30.7606 28.432 33.0805 29.1186C35.494 29.8468 35.0779 32.7804 37.0232 35.8181C38.178 37.6178 39.4471 38.294 41.4341 38.8038C46.3651 40.0729 51.3898 37.0977 52.659 32.1667C53.9281 27.2356 50.9529 22.211 46.0218 20.9418C44.0349 20.4321 42.3496 20.6921 40.7163 21.4307C37.2417 23.0016 36.5031 25.9353 34.0376 25.4047C31.6761 24.895 31.4888 22.8352 30.9167 21.9925C30.0012 20.0055 28.7008 18.1954 26.4122 17.6128C22.3862 16.5829 18.2874 19.0068 17.2471 23.0328C16.2172 27.0588 18.6411 31.1576 22.6671 32.1979C24.9558 32.7804 26.7971 32.4787 28.5552 31.1784Z" fill="#005BAC"/>
<path d="M41.5691 28.4009C42.8216 28.4009 43.837 27.3856 43.837 26.1331C43.837 24.8806 42.8216 23.8652 41.5691 23.8652C40.3166 23.8652 39.3013 24.8806 39.3013 26.1331C39.3013 27.3856 40.3166 28.4009 41.5691 28.4009Z" fill="#4C8DCB"/>
<path d="M21.502 22.294C22.1799 22.294 22.7295 21.7444 22.7295 21.0664C22.7295 20.3885 22.1799 19.8389 21.502 19.8389C20.824 19.8389 20.2744 20.3885 20.2744 21.0664C20.2744 21.7444 20.824 22.294 21.502 22.294Z" fill="#4C8DCB"/>
<path d="M51.7537 25.3522C51.8265 26.0596 51.8057 26.7878 51.7017 27.5264C50.9735 32.4158 46.417 35.7968 41.5275 35.0686C37.5848 34.486 36.0243 30.8138 33.6213 28.3899C33.0907 27.8489 31.9048 27.5056 30.7812 28.3067C28.3989 30.0023 24.9972 30.5745 21.8867 30.1064C20.3678 29.8775 18.9946 29.2637 17.8711 28.3691C18.8282 30.2 20.5239 31.6252 22.6773 32.187C24.9659 32.7695 26.8073 32.4679 28.5654 31.1675C29.4704 30.7097 30.7708 28.4211 33.0907 29.1077C35.5042 29.8359 35.0881 32.7695 37.0334 35.8072C38.1882 37.6069 39.4573 38.2831 41.4443 38.7929C46.3753 40.0621 51.4 37.0868 52.6692 32.1558C53.2829 29.7631 52.898 27.3392 51.7745 25.3418L51.7537 25.3522Z" fill="#004B91"/>
<path d="M27.952 8.4684C28.6414 8.4684 29.2003 7.90949 29.2003 7.22004C29.2003 6.53059 28.6414 5.97168 27.952 5.97168C27.2625 5.97168 26.7036 6.53059 26.7036 7.22004C26.7036 7.90949 27.2625 8.4684 27.952 8.4684Z" fill="#F3982D"/>
<path d="M28.6177 6.15884C28.7426 6.34609 28.8154 6.57496 28.8154 6.81423C28.8154 7.50083 28.2536 8.06259 27.567 8.06259C27.3277 8.06259 27.0989 7.98977 26.9116 7.86493C27.1301 8.21864 27.5254 8.45791 27.9727 8.45791C28.6593 8.45791 29.2211 7.89614 29.2211 7.20954C29.2211 6.76221 28.9818 6.3773 28.6281 6.14844L28.6177 6.15884Z" fill="#D68626"/>
<path d="M27.619 7.22048C27.8029 7.22048 27.9519 7.07144 27.9519 6.88758C27.9519 6.70373 27.8029 6.55469 27.619 6.55469C27.4352 6.55469 27.2861 6.70373 27.2861 6.88758C27.2861 7.07144 27.4352 7.22048 27.619 7.22048Z" fill="#F9C158"/>
<path d="M32.2379 12.4114C33.3525 12.4114 34.2561 11.5078 34.2561 10.3932C34.2561 9.27857 33.3525 8.375 32.2379 8.375C31.1233 8.375 30.2197 9.27857 30.2197 10.3932C30.2197 11.5078 31.1233 12.4114 32.2379 12.4114Z" fill="#F3982D"/>
<path d="M33.2991 8.6875C33.4967 8.99959 33.6112 9.3637 33.6112 9.75901C33.6112 10.8721 32.7061 11.7772 31.593 11.7772C31.1977 11.7772 30.8336 11.6628 30.5215 11.4651C30.8752 12.0373 31.5098 12.4222 32.2276 12.4222C33.3407 12.4222 34.2458 11.5171 34.2458 10.404C34.2458 9.68619 33.8608 9.05161 33.2887 8.6979L33.2991 8.6875Z" fill="#D68626"/>
<path d="M31.6967 10.3934C31.9955 10.3934 32.2377 10.1512 32.2377 9.85248C32.2377 9.55372 31.9955 9.31152 31.6967 9.31152C31.398 9.31152 31.1558 9.55372 31.1558 9.85248C31.1558 10.1512 31.398 10.3934 31.6967 10.3934Z" fill="#F9C158"/>
<path d="M41.2677 13.5237C42.3823 13.5237 43.2859 12.6201 43.2859 11.5055C43.2859 10.3909 42.3823 9.4873 41.2677 9.4873C40.1531 9.4873 39.2495 10.3909 39.2495 11.5055C39.2495 12.6201 40.1531 13.5237 41.2677 13.5237Z" fill="#F3982D"/>
<path d="M42.3391 9.78906C42.5368 10.1012 42.6512 10.4653 42.6512 10.8606C42.6512 11.9737 41.7462 12.8788 40.633 12.8788C40.2377 12.8788 39.8736 12.7643 39.5615 12.5667C39.9152 13.1388 40.5498 13.5237 41.2676 13.5237C42.3807 13.5237 43.2858 12.6187 43.2858 11.5056C43.2858 10.7878 42.9009 10.1532 42.3287 9.79946L42.3391 9.78906Z" fill="#D68626"/>
<path d="M40.7265 11.5057C41.0253 11.5057 41.2675 11.2635 41.2675 10.9648C41.2675 10.666 41.0253 10.4238 40.7265 10.4238C40.4277 10.4238 40.1855 10.666 40.1855 10.9648C40.1855 11.2635 40.4277 11.5057 40.7265 11.5057Z" fill="#F9C158"/>
<path d="M36.2534 19.7343C38.0574 19.7343 39.5199 18.2718 39.5199 16.4677C39.5199 14.6637 38.0574 13.2012 36.2534 13.2012C34.4493 13.2012 32.9868 14.6637 32.9868 16.4677C32.9868 18.2718 34.4493 19.7343 36.2534 19.7343Z" fill="#F3982D"/>
<path d="M37.9803 13.7106C38.2924 14.2099 38.49 14.8029 38.49 15.4375C38.49 17.2476 37.0232 18.704 35.2235 18.704C34.5889 18.704 33.9959 18.5168 33.4966 18.1943C34.0792 19.1202 35.0882 19.7339 36.2638 19.7339C38.0739 19.7339 39.5303 18.2671 39.5303 16.4674C39.5303 15.3023 38.9165 14.2828 37.9907 13.7002L37.9803 13.7106Z" fill="#D68626"/>
<path d="M35.3797 16.4782C35.8623 16.4782 36.2536 16.0869 36.2536 15.6043C36.2536 15.1217 35.8623 14.7305 35.3797 14.7305C34.8971 14.7305 34.5059 15.1217 34.5059 15.6043C34.5059 16.0869 34.8971 16.4782 35.3797 16.4782Z" fill="#F9C158"/>
<path d="M43.9416 4.86876L47.7803 4.99359C48.5085 5.0144 49.0495 5.68019 48.9351 6.398L48.3109 10.1847C48.1444 11.2146 46.8441 11.5579 46.1783 10.7569L42.9637 6.84533C42.3083 6.0443 42.9013 4.83755 43.9416 4.86876Z" fill="#F3982D"/>
<path d="M47.9049 8.96728C47.7385 9.99718 46.4381 10.3405 45.7723 9.53945L42.8179 6.62661C42.8595 6.70983 42.9011 6.78265 42.9635 6.85547L46.178 10.767C46.8334 11.568 48.1338 11.2247 48.3107 10.1948L48.9348 6.40814C48.9661 6.22089 48.9556 6.04404 48.9036 5.86719L47.9153 8.95688L47.9049 8.96728Z" fill="#D68626"/>
<path d="M44.6284 6.86609C44.9271 6.86609 45.1693 6.6239 45.1693 6.32514C45.1693 6.02637 44.9271 5.78418 44.6284 5.78418C44.3296 5.78418 44.0874 6.02637 44.0874 6.32514C44.0874 6.6239 44.3296 6.86609 44.6284 6.86609Z" fill="#F9C158"/>
</g>
<defs>
<clipPath id="clip0_1_1264">
<rect width="179.962" height="38.72" fill="white" transform="translate(0.519043 0.5)"/>
</clipPath>
</defs>
</svg>
