<svg width="39" height="33" viewBox="0 0 39 33" fill="none" xmlns="http://www.w3.org/2000/svg">
<path d="M28.1686 30.558H3.41856V12.012H12.9886V2.442H28.1686V4.884L30.6766 2.508V0H12.9886L0.976562 12.012V33H30.6766V18.414L28.1686 20.988V30.558ZM37.9366 6.534L34.2406 2.772C34.0646 2.596 33.8556 2.508 33.6136 2.508C33.3716 2.508 33.1846 2.596 33.0526 2.772L17.2786 17.952C17.1906 18.04 17.1246 18.15 17.0806 18.282L15.1666 24.552C15.0786 24.86 15.1446 25.135 15.3646 25.377C15.5846 25.619 15.8706 25.696 16.2226 25.608L22.6906 23.628L37.9366 7.722C38.1126 7.546 38.2006 7.337 38.2006 7.095C38.2006 6.853 38.1126 6.666 37.9366 6.534ZM18.7306 23.298L17.4766 21.978L18.3346 19.14L20.4466 20.262L21.5686 22.44L18.7306 23.298ZM35.5606 5.94L22.1626 19.404L21.3046 18.612L34.8346 5.148L35.5606 5.94Z" fill="#333333"/>
</svg>
