<svg width="66" height="81" viewBox="0 0 66 81" fill="none" xmlns="http://www.w3.org/2000/svg">
<path d="M31.0209 26.7025C32.6728 23.2216 36.346 22.0283 39.212 24.0414L41.8101 25.8662C44.6761 27.8793 45.6632 32.346 44.0113 35.8269L43.8428 36.1818C42.8227 38.3315 40.9715 39.7002 38.9382 39.8103L34.2439 40.076C31.4398 40.2364 28.9001 42.1207 27.5009 45.0691L27.4354 45.2071C26.6071 46.9525 27.0989 49.178 28.536 50.1874C29.9731 51.1968 31.8033 50.6022 32.6315 48.8569L32.6971 48.7188C33.0808 47.9102 33.7774 47.4003 34.5354 47.3542L39.2298 47.0885C43.3057 46.8486 47.0034 44.121 49.0437 39.8217L49.2121 39.4667C52.5206 32.4952 50.5498 23.5773 44.8097 19.5455L42.2116 17.7206C36.4668 13.6987 29.1333 16.0812 25.8248 23.0527C24.9965 24.7981 25.4883 27.0237 26.9254 28.033C28.3625 29.0424 30.1927 28.4478 31.0209 26.7025ZM22.5415 62.819C23.4028 63.424 24.426 63.5886 25.3861 63.2767C26.3462 62.9648 27.1644 62.2019 27.6609 61.1558C28.1573 60.1097 28.2913 58.8661 28.0333 57.6987C27.7753 56.5312 27.1464 55.5354 26.2851 54.9304C25.4238 54.3254 24.4006 54.1608 23.4405 54.4727C22.4804 54.7846 21.6621 55.5475 21.1657 56.5936C20.6693 57.6397 20.5353 58.8833 20.7933 60.0508C21.0513 61.2183 21.6801 62.214 22.5415 62.819Z" fill="#F5E524"/>
</svg>
