<svg width="116" height="20" viewBox="0 0 116 20" fill="none" xmlns="http://www.w3.org/2000/svg">
<g clip-path="url(#clip0_2_2238)">
<path d="M9.07088 1.00102C9.41462 0.184556 10.5854 0.184558 10.9291 1.00102L12.9579 5.81991C13.1029 6.16411 13.4306 6.39928 13.8067 6.42907L19.0727 6.84615C19.9649 6.91682 20.3267 8.0168 19.6469 8.59207L15.6348 11.9873C15.3482 12.2299 15.223 12.6104 15.3106 12.973L16.5363 18.0497C16.744 18.9098 15.7969 19.5897 15.033 19.1288L10.5245 16.4082C10.2025 16.2139 9.7975 16.2139 9.47548 16.4082L4.96699 19.1288C4.20311 19.5897 3.25596 18.9098 3.46363 18.0497L4.68942 12.973C4.77698 12.6104 4.65182 12.2299 4.36526 11.9873L0.353062 8.59207C-0.326718 8.0168 0.0350679 6.91682 0.927291 6.84615L6.19336 6.42907C6.5695 6.39928 6.89716 6.16411 7.04207 5.81991L9.07088 1.00102Z" fill="black"/>
<path d="M33.0708 1.00102C33.4146 0.184556 34.5853 0.184558 34.9291 1.00102L36.9578 5.81991C37.1028 6.16411 37.4305 6.39928 37.8066 6.42907L43.0726 6.84615C43.9648 6.91682 44.3266 8.0168 43.6468 8.59207L39.6347 11.9873C39.3482 12.2299 39.2229 12.6104 39.3105 12.973L40.5363 18.0497C40.7439 18.9098 39.7968 19.5897 39.0329 19.1288L34.5245 16.4082C34.2024 16.2139 33.7974 16.2139 33.4754 16.4082L28.9669 19.1288C28.2031 19.5897 27.2559 18.9098 27.4636 18.0497L28.6894 12.973C28.7769 12.6104 28.6518 12.2299 28.3652 11.9873L24.353 8.59207C23.6732 8.0168 24.035 6.91682 24.9272 6.84615L30.1933 6.42907C30.5694 6.39928 30.8971 6.16411 31.042 5.81991L33.0708 1.00102Z" fill="black"/>
<path d="M57.0708 1.00102C57.4145 0.184556 58.5853 0.184558 58.929 1.00102L60.9578 5.81991C61.1028 6.16411 61.4304 6.39928 61.8065 6.42907L67.0725 6.84615C67.9648 6.91682 68.3265 8.0168 67.6468 8.59207L63.6347 11.9873C63.3481 12.2299 63.2229 12.6104 63.3104 12.973L64.5362 18.0497C64.7439 18.9098 63.7968 19.5897 63.0329 19.1288L58.5244 16.4082C58.2024 16.2139 57.7974 16.2139 57.4754 16.4082L52.9669 19.1288C52.203 19.5897 51.2558 18.9098 51.4635 18.0497L52.6893 12.973C52.7769 12.6104 52.6517 12.2299 52.3651 11.9873L48.3529 8.59207C47.6732 8.0168 48.0349 6.91682 48.9272 6.84615L54.1932 6.42907C54.5694 6.39928 54.897 6.16411 55.0419 5.81991L57.0708 1.00102Z" fill="black"/>
<path d="M81.0708 1.00102C81.4145 0.184556 82.5853 0.184558 82.929 1.00102L84.9578 5.81991C85.1028 6.16411 85.4304 6.39928 85.8065 6.42907L91.0725 6.84615C91.9648 6.91682 92.3265 8.0168 91.6468 8.59207L87.6347 11.9873C87.3481 12.2299 87.2229 12.6104 87.3104 12.973L88.5362 18.0497C88.7439 18.9098 87.7968 19.5897 87.0329 19.1288L82.5244 16.4082C82.2024 16.2139 81.7974 16.2139 81.4754 16.4082L76.9669 19.1288C76.203 19.5897 75.2558 18.9098 75.4635 18.0497L76.6893 12.973C76.7769 12.6104 76.6517 12.2299 76.3651 11.9873L72.3529 8.59207C71.6732 8.0168 72.0349 6.91682 72.9272 6.84615L78.1932 6.42907C78.5694 6.39928 78.897 6.16411 79.0419 5.81991L81.0708 1.00102Z" fill="black"/>
<path d="M105.071 1.00102C105.414 0.184556 106.585 0.184558 106.929 1.00102L108.958 5.81991C109.103 6.16411 109.43 6.39928 109.806 6.42907L115.072 6.84615C115.965 6.91682 116.326 8.0168 115.647 8.59207L111.635 11.9873C111.348 12.2299 111.223 12.6104 111.31 12.973L112.536 18.0497C112.744 18.9098 111.797 19.5897 111.033 19.1288L106.524 16.4082C106.202 16.2139 105.797 16.2139 105.475 16.4082L100.967 19.1288C100.203 19.5897 99.2558 18.9098 99.4634 18.0497L100.689 12.973C100.777 12.6104 100.652 12.2299 100.365 11.9873L96.3529 8.59207C95.6731 8.0168 96.0349 6.91682 96.9271 6.84615L102.193 6.42907C102.569 6.39928 102.897 6.16411 103.042 5.81991L105.071 1.00102Z" fill="black"/>
</g>
<defs>
<clipPath id="clip0_2_2238">
<rect width="116" height="18.8889" fill="white" transform="translate(0 0.388672)"/>
</clipPath>
</defs>
</svg>
