<svg width="116" height="20" viewBox="0 0 116 20" fill="none" xmlns="http://www.w3.org/2000/svg">
<g clip-path="url(#clip0_2_2148)">
<path d="M9.07088 1.11234C9.41462 0.295885 10.5854 0.295886 10.9291 1.11235L12.9579 5.93123C13.1029 6.27543 13.4306 6.51061 13.8067 6.5404L19.0727 6.95748C19.9649 7.02814 20.3267 8.12813 19.6469 8.7034L15.6348 12.0987C15.3482 12.3412 15.223 12.7218 15.3106 13.0843L16.5363 18.161C16.744 19.0211 15.7969 19.701 15.033 19.2401L10.5245 16.5196C10.2025 16.3252 9.7975 16.3252 9.47548 16.5196L4.96699 19.2401C4.20311 19.701 3.25596 19.0211 3.46363 18.161L4.68942 13.0843C4.77698 12.7218 4.65182 12.3412 4.36526 12.0987L0.353062 8.7034C-0.326718 8.12813 0.0350679 7.02814 0.927291 6.95748L6.19336 6.5404C6.5695 6.51061 6.89716 6.27543 7.04207 5.93123L9.07088 1.11234Z" fill="black"/>
<path d="M33.0708 1.11234C33.4146 0.295885 34.5853 0.295886 34.9291 1.11235L36.9578 5.93123C37.1028 6.27543 37.4305 6.51061 37.8066 6.5404L43.0726 6.95748C43.9648 7.02814 44.3266 8.12813 43.6468 8.7034L39.6347 12.0987C39.3482 12.3412 39.2229 12.7218 39.3105 13.0843L40.5363 18.161C40.7439 19.0211 39.7968 19.701 39.0329 19.2401L34.5245 16.5196C34.2024 16.3252 33.7974 16.3252 33.4754 16.5196L28.9669 19.2401C28.2031 19.701 27.2559 19.0211 27.4636 18.161L28.6894 13.0843C28.7769 12.7218 28.6518 12.3412 28.3652 12.0987L24.353 8.7034C23.6732 8.12813 24.035 7.02814 24.9272 6.95748L30.1933 6.5404C30.5694 6.51061 30.8971 6.27543 31.042 5.93123L33.0708 1.11234Z" fill="black"/>
<path d="M57.0708 1.11234C57.4145 0.295885 58.5853 0.295886 58.929 1.11235L60.9578 5.93123C61.1028 6.27543 61.4305 6.51061 61.8066 6.5404L67.0726 6.95748C67.9648 7.02814 68.3266 8.12813 67.6468 8.7034L63.6347 12.0987C63.3481 12.3412 63.2229 12.7218 63.3105 13.0843L64.5362 18.161C64.7439 19.0211 63.7968 19.701 63.0329 19.2401L58.5244 16.5196C58.2024 16.3252 57.7974 16.3252 57.4754 16.5196L52.9669 19.2401C52.203 19.701 51.2559 19.0211 51.4635 18.161L52.6893 13.0843C52.7769 12.7218 52.6517 12.3412 52.3652 12.0987L48.353 8.7034C47.6732 8.12813 48.035 7.02814 48.9272 6.95748L54.1933 6.5404C54.5694 6.51061 54.8971 6.27543 55.042 5.93123L57.0708 1.11234Z" fill="black"/>
<path d="M81.0707 1.11234C81.4145 0.295885 82.5852 0.295886 82.929 1.11235L84.9577 5.93123C85.1027 6.27543 85.4304 6.51061 85.8065 6.5404L91.0725 6.95748C91.9647 7.02814 92.3265 8.12813 91.6467 8.7034L87.6346 12.0987C87.3481 12.3412 87.2228 12.7218 87.3104 13.0843L88.5362 18.161C88.7438 19.0211 87.7967 19.701 87.0328 19.2401L82.5244 16.5196C82.2023 16.3252 81.7973 16.3252 81.4753 16.5196L76.9668 19.2401C76.203 19.701 75.2558 19.0211 75.4635 18.161L76.6893 13.0843C76.7768 12.7218 76.6517 12.3412 76.3651 12.0987L72.3529 8.7034C71.6731 8.12813 72.0349 7.02814 72.9271 6.95748L78.1932 6.5404C78.5693 6.51061 78.897 6.27543 79.0419 5.93123L81.0707 1.11234Z" fill="black"/>
<path d="M105.071 1.11234C105.414 0.295885 106.585 0.295886 106.929 1.11235L108.958 5.93123C109.103 6.27543 109.43 6.51061 109.806 6.5404L115.072 6.95748C115.965 7.02814 116.326 8.12813 115.647 8.7034L111.635 12.0987C111.348 12.3412 111.223 12.7218 111.31 13.0843L112.536 18.161C112.744 19.0211 111.797 19.701 111.033 19.2401L106.524 16.5196C106.202 16.3252 105.797 16.3252 105.475 16.5196L100.967 19.2401C100.203 19.701 99.2558 19.0211 99.4634 18.161L100.689 13.0843C100.777 12.7218 100.652 12.3412 100.365 12.0987L96.3529 8.7034C95.6731 8.12813 96.0349 7.02814 96.9271 6.95748L102.193 6.5404C102.569 6.51061 102.897 6.27543 103.042 5.93123L105.071 1.11234Z" fill="black"/>
</g>
<defs>
<clipPath id="clip0_2_2148">
<rect width="116" height="18.8889" fill="white" transform="translate(0 0.5)"/>
</clipPath>
</defs>
</svg>
