<svg width="116" height="20" viewBox="0 0 116 20" fill="none" xmlns="http://www.w3.org/2000/svg">
<g clip-path="url(#clip0_2_2253)">
<path d="M9.07088 0.889687C9.41462 0.0732284 10.5854 0.0732294 10.9291 0.889689L12.9579 5.70858C13.1029 6.05278 13.4306 6.28795 13.8067 6.31774L19.0727 6.73482C19.9649 6.80549 20.3267 7.90548 19.6469 8.48074L15.6348 11.876C15.3482 12.1186 15.223 12.4991 15.3106 12.8617L16.5363 17.9383C16.744 18.7985 15.7969 19.4783 15.033 19.0175L10.5245 16.2969C10.2025 16.1026 9.7975 16.1026 9.47548 16.2969L4.96699 19.0175C4.20311 19.4783 3.25596 18.7985 3.46363 17.9383L4.68942 12.8617C4.77698 12.4991 4.65182 12.1186 4.36526 11.876L0.353062 8.48074C-0.326718 7.90548 0.0350679 6.80549 0.927291 6.73482L6.19336 6.31774C6.5695 6.28795 6.89716 6.05278 7.04207 5.70858L9.07088 0.889687Z" fill="black"/>
<path d="M33.0708 0.889687C33.4146 0.0732284 34.5853 0.0732294 34.9291 0.889689L36.9578 5.70858C37.1028 6.05278 37.4305 6.28795 37.8066 6.31774L43.0726 6.73482C43.9648 6.80549 44.3266 7.90548 43.6468 8.48074L39.6347 11.876C39.3482 12.1186 39.2229 12.4991 39.3105 12.8617L40.5363 17.9383C40.7439 18.7985 39.7968 19.4783 39.0329 19.0175L34.5245 16.2969C34.2024 16.1026 33.7974 16.1026 33.4754 16.2969L28.9669 19.0175C28.2031 19.4783 27.2559 18.7985 27.4636 17.9383L28.6894 12.8617C28.7769 12.4991 28.6518 12.1186 28.3652 11.876L24.353 8.48074C23.6732 7.90548 24.035 6.80549 24.9272 6.73482L30.1933 6.31774C30.5694 6.28795 30.8971 6.05278 31.042 5.70858L33.0708 0.889687Z" fill="black"/>
<path d="M57.0708 0.889687C57.4145 0.0732284 58.5853 0.0732294 58.929 0.889689L60.9578 5.70858C61.1028 6.05278 61.4304 6.28795 61.8065 6.31774L67.0725 6.73482C67.9648 6.80549 68.3265 7.90548 67.6468 8.48074L63.6347 11.876C63.3481 12.1186 63.2229 12.4991 63.3104 12.8617L64.5362 17.9383C64.7439 18.7985 63.7968 19.4783 63.0329 19.0175L58.5244 16.2969C58.2024 16.1026 57.7974 16.1026 57.4754 16.2969L52.9669 19.0175C52.203 19.4783 51.2558 18.7985 51.4635 17.9383L52.6893 12.8617C52.7769 12.4991 52.6517 12.1186 52.3651 11.876L48.3529 8.48074C47.6732 7.90548 48.0349 6.80549 48.9272 6.73482L54.1932 6.31774C54.5694 6.28795 54.897 6.05278 55.0419 5.70858L57.0708 0.889687Z" fill="black"/>
<path d="M81.0708 0.889687C81.4145 0.0732284 82.5853 0.0732294 82.929 0.889689L84.9578 5.70858C85.1028 6.05278 85.4304 6.28795 85.8065 6.31774L91.0725 6.73482C91.9648 6.80549 92.3265 7.90548 91.6468 8.48074L87.6347 11.876C87.3481 12.1186 87.2229 12.4991 87.3104 12.8617L88.5362 17.9383C88.7439 18.7985 87.7968 19.4783 87.0329 19.0175L82.5244 16.2969C82.2024 16.1026 81.7974 16.1026 81.4754 16.2969L76.9669 19.0175C76.203 19.4783 75.2558 18.7985 75.4635 17.9383L76.6893 12.8617C76.7769 12.4991 76.6517 12.1186 76.3651 11.876L72.3529 8.48074C71.6732 7.90548 72.0349 6.80549 72.9272 6.73482L78.1932 6.31774C78.5694 6.28795 78.897 6.05278 79.0419 5.70858L81.0708 0.889687Z" fill="black"/>
<path d="M105.071 0.889687C105.414 0.0732284 106.585 0.0732294 106.929 0.889689L108.958 5.70858C109.103 6.05278 109.43 6.28795 109.806 6.31774L115.072 6.73482C115.965 6.80549 116.326 7.90548 115.647 8.48074L111.635 11.876C111.348 12.1186 111.223 12.4991 111.31 12.8617L112.536 17.9383C112.744 18.7985 111.797 19.4783 111.033 19.0175L106.524 16.2969C106.202 16.1026 105.797 16.1026 105.475 16.2969L100.967 19.0175C100.203 19.4783 99.2558 18.7985 99.4634 17.9383L100.689 12.8617C100.777 12.4991 100.652 12.1186 100.365 11.876L96.3529 8.48074C95.6731 7.90548 96.0349 6.80549 96.9271 6.73482L102.193 6.31774C102.569 6.28795 102.897 6.05278 103.042 5.70858L105.071 0.889687Z" fill="black"/>
</g>
<defs>
<clipPath id="clip0_2_2253">
<rect width="116" height="18.8889" fill="white" transform="translate(0 0.277344)"/>
</clipPath>
</defs>
</svg>
